# xmcd
#
# Track frame offsets:
#	150
#	18572
#	40090
#	58922
#	76613
#	90911
#	112115
#	131297
#	151476
#	177170
#	198210
#	213411
#	217022
#
# Disc length: 3203 seconds
#
# Revision: 16
# Processed by: cddbd v1.5.2PL0 Copyright (c) Steve Scherf et al.
# Submitted via: audiograbber 1.83.01
#
DISCID=a80c810d
DTITLE=2Pac - R U Still Down? [Remember Me] [CD2]
DYEAR=1997
DGENRE=Rap
TTITLE0=2Pac, Big Syke - Ready 4 Whatever
TTITLE1=2Pac - When I Get Free
TTITLE2=2Pac - Hold On Be Strong
TTITLE3=2Pac, Big Syke, Spice 1 - I'm Losin It
TTITLE4=2Pac - Fake Ass Bitches
TTITLE5=2Pac, Eric Williams - Do For Love
TTITLE6=2Pac - Enemies With Me
TTITLE7=2Pac, Dave The Black Angel - Nothin But Love
TTITLE8=2Pac - 16 On Death Row
TTITLE9=2Pac, Maxee - I Wonder If Heaven Got A Ghetto (Hip-Hop Version)
TTITLE10=2Pac - When I Get Free II
TTITLE11=2Pac - Black Starry Night (Interlude)
TTITLE12=2Pac - Only Fear Of Death
EXTD=www.RapMusicGuide.com
EXTT0=
EXTT1=
EXTT2=
EXTT3=
EXTT4=
EXTT5=
EXTT6=
EXTT7=
EXTT8=
EXTT9=
EXTT10=
EXTT11=
EXTT12=
PLAYORDER=
